<?xml version="1.0" encoding="utf-8"?>
<!DOCTYPE svg>
<svg version="1.1" baseProfile="full" xmlns="http://www.w3.org/2000/svg" xmlns:xlink="http://www.w3.org/1999/xlink" x="0px" y="0px" width="96px" height="16px" viewBox="0 0 96 16" enable-background="new 0 0 96 16" xml:space="preserve">
<metadata>Icon sprite by Phil Wareham - http://twitter.com/philwareham</metadata>

<style type="text/css">
	<![CDATA[
	g { fill: #000000; }
	]]>
</style>

<g id="ui-extra-icon-code">
	<polygon points="7,5 5,3 0,8 5,13 7,11 4,8"/>
	<polygon points="9,11 11,13 16,8 11,3 9,5 12,8"/>
</g>

<g id="ui-extra-icon-time">
	<polygon points="23,8 23,4 25,4 25,9 21,10.5 20.5,9"/>
	<path d="M17,8c0-3.866,3.134-7,7-7s7,3.134,7,7s-3.134,7-7,7S17,11.866,17,8z M24,13c2.762,0,5-2.238,5-5s-2.238-5-5-5s-5,2.238-5,5S21.238,13,24,13z"/>
</g>

<g id="ui-extra-icon-list">
	<rect x="37" y="3" width="10" height="1"/>
	<rect x="37" y="6" width="10" height="1"/>
	<rect x="37" y="9" width="10" height="1"/>
	<rect x="37" y="12" width="10" height="1"/>
	<rect x="33" y="2" width="2" height="2"/>
	<rect x="33" y="5" width="2" height="2"/>
	<rect x="33" y="8" width="2" height="2"/>
	<rect x="33" y="11" width="2" height="2"/>
</g>

<g id="ui-extra-icon-grid">
	<rect x="48" y="3" width="16" height="1"/>
	<rect x="48" y="6" width="16" height="1"/>
	<rect x="48" y="9" width="16" height="1"/>
	<rect x="48" y="12" width="16" height="1"/>
	<rect x="48" y="3" width="1" height="10"/>
	<rect x="51" y="3" width="1" height="10"/>
	<rect x="54" y="3" width="1" height="10"/>
	<rect x="57" y="3" width="1" height="10"/>
	<rect x="60" y="3" width="1" height="10"/>
	<rect x="63" y="3" width="1" height="10"/>
</g>

<g id="ui-extra-icon-download">
	<polygon points="74,10 77,10 77,2 67,2 67,10 70,10 70,12 65,12 65,0 79,0 79,12 74,12"/>
	<polygon points="72,16 75,13 73,13 73,6 71,6 71,13 69,13"/>
</g>

<g id="ui-extra-icon-upload">
	<polygon points="90,10 93,10 93,2 83,2 83,10 86,10 86,12 81,12 81,0 95,0 95,12 90,12"/>
	<polygon points="88,6 85,9 87,9 87,16 89,16 89,9 91,9"/>
</g>

<g id="ui-extra-icon-attach">
	<path fill="none" stroke="#000000" stroke-miterlimit="10" d="M97.5,6.5c0,0,6.25,6.25,7.5,7.5c1,1,3.03,1.529,4.5,0c1.482-1.544,1-3.5,0-4.5l-8-7.5C100.469,0.928,99,0.5,98,1.5S97.5,4,98.5,5l7.5,7.5c0.5,0.5,1.5,0.5,2,0s0.5-1.5,0-2l-7.5-7"/>
</g>

</svg>
