<svg enable-background="new 0 0 256 272" viewBox="0 0 256 272" xmlns="http://www.w3.org/2000/svg"><path d="m12 9-4-4-4 4 1.5 1.5 2.5-2.5 2.5 2.5z"/><path d="m21 5v2h4v4h2v-6z"/><path d="m39 12 4-4-4-4-1.5 1.5 2.5 2.5-2.5 2.5z"/><path d="m57 5v4h-4v2h6v-6z"/><path d="m68 7 4 4 4-4-1.5-1.5-2.5 2.5-2.5-2.5z"/><path d="m87 9v-4h-2v6h6v-2z"/><path d="m105 4-4 4 4 4 1.5-1.5-2.5-2.5 2.5-2.5z"/><path d="m123 5h-6v6h2v-4h4z"/><path d="m132 10 4 4 4-4-1.5-1.5-2.5 2.5-2.5-2.5z"/><path d="m140 6-4-4-4 4 1.5 1.5 2.5-2.5 2.5 2.5z"/><path d="m154 12 4-4-4-4-1.5 1.5 2.5 2.5-2.5 2.5z"/><path d="m150 4-4 4 4 4 1.5-1.5-2.5-2.5 2.5-2.5z"/><path d="m13 26-5-5-5 5z"/><path d="m27 28v-7h-7z"/><path d="m38 29 5-5-5-5z"/><path d="m52 27h7v-7z"/><path d="m67 22 5 5 5-5z"/><path d="m85 20v7h7z"/><path d="m124 21h-7v7z"/><path d="m106 19-5 5 5 5z"/><path d="m131 25 5 5 5-5z"/><path d="m141 23-5-5-5 5z"/><path d="m153 29 5-5-5-5z"/><path d="m151 19-5 5 5 5z"/><path d="m8 35-3 3h2v7h2v-7h2z"/><path d="m28 36h-4l1.25 1.25-6.5 6.5 1.5 1.5 6.5-6.5 1.25 1.25z"/><path d="m45 40-3-3v2h-7v2h7v2z"/><path d="m60 44v-4l-1.25 1.25-6.5-6.5-1.5 1.5 6.5 6.5-1.25 1.25z"/><path d="m72 45 3-3h-2v-7h-2v7h-2z"/><path d="m84 44h4l-1.25-1.25 6.5-6.5-1.5-1.5-6.5 6.5-1.25-1.25z"/><path d="m99 40 3 3v-2h7v-2h-7v-2z"/><path d="m116 36v4l1.25-1.25 6.5 6.5 1.5-1.5-6.5-6.5 1.25-1.25z"/><path d="m137 37h2l-3-3-3 3h2v6h-2l3 3 3-3h-2z"/><path d="m153 35 1.25 1.25-6 6-1.25-1.25v4h4l-1.25-1.25 6-6 1.25 1.25v-4z"/><path d="m165 39v-2l-3 3 3 3v-2h6v2l3-3-3-3v2z"/><path d="m187.75 42.25-6-6 1.25-1.25h-4v4l1.25-1.25 6 6-1.25 1.25h4v-4z"/><path d="m196 35h8v2h-8z"/><path d="m200 38-3 3h2v4h2v-4h2z"/><path d="m219 36h2v8h-2z"/><path d="m218 40-3-3v2h-4v2h4v2z"/><path d="m228 43h8v2h-8z"/><path d="m232 42 3-3h-2v-4h-2v4h-2z"/><path d="m243 36h2v8h-2z"/><path d="m246 40 3 3v-2h4v-2h-4v-2z"/><path d="m8 50-5 5h3v7h4v-7h3z"/><path d="m29 51h-7l2 2-5 5 3 3 5-5 2 2z"/><path d="m46 56-5-5v3h-7v4h7v3z"/><path d="m61 61v-7l-2 2-5-5-3 3 5 5-2 2z"/><path d="m72 62 5-5h-3v-7h-4v7h-3z"/><path d="m83 61v-7l2 2 5-5 3 3-5 5 2 2z"/><path d="m98 56 5 5v-3h7v-4h-7v-3z"/><path d="m115 51v7l2-2 5 5 3-3-5-5 2-2z"/><path d="m138 54h3l-5-5-5 5h3v4h-3l5 5 5-5h-3z"/><path d="m151 50 2 2-5 5-2-2v7h7l-2-2 5-5 2 2v-7z"/><path d="m166 54v-3l-5 5 5 5v-3h4v3l5-5-5-5v3z"/><path d="m178 57 2-2 5 5-2 2h7v-7l-2 2-5-5 2-2h-7z"/><path d="m196 50h8v2h-8z"/><path d="m200 53-5 5h3v4h4v-4h3z"/><path d="m220 52h2v8h-2z"/><path d="m219 56-5-5v3h-4v4h4v3z"/><path d="m228 60h8v2h-8z"/><path d="m232 59 5-5h-3v-4h-4v4h-3z"/><path d="m242 52h2v8h-2z"/><path d="m245 56 5 5v-3h4v-4h-4v-3z"/><path d="m6 76c2.209 0 4-1.791 4-4s-1.791-4-4-4v2l-3-3 3-3v2c3.313 0 6 2.687 6 6s-2.687 6-6 6z"/><path d="m20 70c0 3 1.791 4 4 4s4-1 4-4h-2l3-3 3 3h-2c0 4-2.687 6-6 6s-6-2-6-6z"/><path d="m42 68c-2.209 0-4 1.791-4 4s1.791 4 4 4v-2l3 3-3 3v-2c-3.313 0-6-2.687-6-6s2.687-6 6-6z"/><path d="m60 74c0-2-1.791-4-4-4s-4 2-4 4h2l-3 3-3-3h2c0-3 2.687-6 6-6s6 3 6 6z"/><path d="m74 76c0-2.209-1.791-4-4-4v2l-3-3 3-3v2c3.313 0 6 2.687 6 6z"/><path d="m84 74c2.209 0 4-1 4-4h-2l3-3 3 3h-2c0 4-2.687 6-6 6z"/><path d="m102 68c0 2.209 1.791 4 4 4v-2l3 3-3 3v-2c-3.313 0-6-2.687-6-6z"/><path d="m124 70c-2.209 0-4 2-4 4h2l-3 3-3-3h2c0-3 2.687-6 6-6z"/><path d="m131.758 76.242 1.414-1.414c-.725-.724-1.172-1.724-1.172-2.828 0-2.209 1.791-4 4-4s4 1.791 4 4-1.791 4-4 4v-2l-3 3 3 3v-2c3.313 0 6-2.687 6-6s-2.687-6-6-6c-3.314 0-6 2.687-6 6 0 1.656.672 3.156 1.758 4.242z"/><path d="m147.758 67.758 1.414 1.414c.723-.725 1.723-1.172 2.828-1.172 2.209 0 4 1.791 4 4s-1.791 4-4 4-4-1.791-4-4h2l-3-3-3 3h2c0 3.313 2.686 6 6 6 3.313 0 6-2.687 6-6s-2.687-6-6-6c-1.656 0-3.156.672-4.242 1.758z"/><path d="m172.242 67.758-1.414 1.414c.725.724 1.172 1.724 1.172 2.828 0 2.209-1.791 4-4 4s-4-1.791-4-4 1.791-4 4-4v2l3-3-3-3v2c-3.314 0-6 2.687-6 6s2.686 6 6 6c3.313 0 6-2.687 6-6 0-1.656-.672-3.156-1.758-4.242z"/><path d="m188.242 76.242-1.414-1.414c-.724.725-1.724 1.172-2.828 1.172-2.209 0-4-1.791-4-4s1.791-4 4-4 4 1.791 4 4h-2l3 3 3-3h-2c0-3.313-2.687-6-6-6-3.314 0-6 2.687-6 6s2.686 6 6 6c1.656 0 3.156-.672 4.242-1.758z"/><path d="m4 87v-2l-3 3 3 3v-2h8v2l3-3-3-3v2z"/><path d="m9 84h2l-3-3-3 3h2v8h-2l3 3 3-3h-2z"/><path d="m28.75 91.25-8-8 1.25-1.25h-4v4l1.25-1.25 8 8-1.25 1.25h4v-4z"/><path d="m26 82 1.25 1.25-8 8-1.25-1.25v4h4l-1.25-1.25 8-8 1.25 1.25v-4z"/><path d="m42 92h-7v-5h2l2-2h-5v8h9v-4l-1 1z"/><path d="m45 83h-4l1.25 1.25-4.5 4.5 1.5 1.5 4.5-4.5 1.25 1.25z"/><path d="m62 90h-9v-8h9zm-1-6h-7v5h7z"/><path d="m58 92h-7v-5h1v-2h-2v8h9v-2h-1z"/><path d="m76.75 84.25c-1.099-1.393-2.838-2.25-4.75-2.25-3.313 0-6 2.687-6 6h2c0-2.209 1.791-4 4-4 1.36 0 2.527.713 3.25 1.75l-1.25 1.25h4v-4z"/><path d="m76 88c0 2.209-1.791 4-4 4-1.36 0-2.527-.713-3.25-1.75l1.25-1.25h-4v4l1.25-1.25c1.099 1.393 2.838 2.25 4.75 2.25 3.313 0 6-2.687 6-6z"/><path d="m95 85-3-3v2c-5 0-7 7-11 7v2c5 0 7-7 11-7v2z"/><path d="m95 92-3-3v2c-4 0-6-7-11-7v2c4 0 6 7 11 7v2z"/><path d="m98 90 3 3v-2h5v-2h-5v-2z"/><path d="m110 86-3-3v2h-5v2h5v2z"/><path d="m112 91 5 5v-3h4v-4h-4v-3z"/><path d="m128 85-5-5v3h-4v4h4v3z"/><path d="m14 98h-1v-1h-3l-1 1h-8v12h13zm-12 1h11v10h-11z"/><path d="m2 100h11v1h-11z"/><path d="m29 101v-3h-1v-1h-3l-1 1h-8v12h13.5l2.5-9zm-12-2h11v2h-9l-2 7zm11.5 10h-10.5l2-7h10.5z"/><path d="m45 100v11h-10v-14h7zm-3-2h-6v12h8v-10z"/><path d="m42 100v-2h-1v3h3v-1z"/><path d="m37 108h6v1h-6z"/><path d="m37 106h6v1h-6z"/><path d="m37 104h6v1h-6z"/><path d="m37 102h6v1h-6z"/><path d="m58 111h-7v-14h10v11zm2-3v-10h-8v12h6z"/><path d="m58 108v2h-1v-3h3v1z"/><path d="m77 97v13h-8-2v-1h2v-1h-2v-1h2v-1h-2v-1h2v-1h-2v-1h2v-1h-2v-1h2v-1h-2v-1h2v-1h-2v-1h2zm-2 9h-4v1h4zm0-2h-4v1h4z"/><path d="m81 99h14v10h-14zm7 6c-.875 0-1.25-.5-1.25-.5l-3.5 3.5h9.5l-3.5-3.5s-.375.5-1.25.5zm-6 3 4-4-4-4zm12 0v-8l-4 4zm-4.75-4.5 3.5-3.5h-9.5l3.5 3.5s.812.5 1.25.5 1.25-.5 1.25-.5z"/><path d="m111 99.5v9.5h-14v-9.5s5-3.5 7-3.5 7 3.5 7 3.5zm-7 5.5c-.875 0-1.25-.5-1.25-.5l-3.5 3.5h9.5l-3.5-3.5s-.375.5-1.25.5zm-2-1-4-4v8zm4 0 4 4v-8zm-2-7c-1 0-1.578.375-1.578.375l-4.422 2.625h12l-4.422-2.625s-.578-.375-1.578-.375z"/><path d="m114 100h3v9h-3z"/><path d="m118 100h4v9h-4z"/><path d="m123 100h3v9h-3z"/><path d="m119 100c0-1.104-.104-2 1-2s1 .896 1 2h2c0-1.657-1.343-3-3-3s-3 1.343-3 3z"/><path d="m143 99h-14v9h8l4 4v-4h2z"/><path d="m155 109v2h2v-2c0-3-.5-4-5-4s-5 1-5 4v2h2v-2l1 1v1h4v-1z"/><path d="m149 102v-2c0-3 3-3 3-3s3 0 3 3v2c0 3-3 3-3 3s-3 0-3-3zm2-2h-1v1h1zm3 0h-1v1h1z"/><path d="m174 106v3l-1 2h-10l-1-2v-3h1v-8h10v8zm-1 1h-2v1h2zm-1-8h-8v7h8z"/><path d="m165 100h6v1h-6z"/><path d="m165 102h6v1h-6z"/><path d="m165 104h6v1h-6z"/><path d="m189 98h-3c0-1.104-.896-2-2-2-1.105 0-2 .896-2 2h-3c-1 0-1 2-1 2h12s0-2-1-2zm-5-1c.553 0 1 .447 1 1h-2c0-.553.447-1 1-1z"/><path d="m188 100v10h-1v-10h-1v10h-1v-10h-1v10h-1v-10h-1v10h-1v-10h-2v11h10v-11z"/><path d="m195 103h10v8h-10z"/><path d="m203 100c0-1.657-1.343-3-3-3s-3 1.343-3 3v3h2v-3c0-.553.447-1 1-1s1 .447 1 1v3h2z"/><path d="m211 103h10v8h-10z"/><path d="m223 100c0-1.657-1.343-3-3-3s-3 1.343-3 3v3h2v-3c0-.553.447-1 1-1s1 .447 1 1v3h2z"/><path d="m236 111-4-4-4 4v-13h8z"/><path d="m247 111-6-6 7-7h6v6zm5-11h1v-1h-1zm-9 5 4 4 4-4-4-4z"/><path d="m13 126h-10v-6l5-5 5 5zm-4-5h-2v4h2z"/><path d="m8 114-6 6h-1l7-7 7 7h-1z"/><path d="m29 122v-6c-3 1-4-1-7-1v6c3 0 4 2 7 1z"/><path d="m20 114c-.552 0-1 .447-1 1v10h2v-10c0-.553-.448-1-1-1z"/><path d="m36 114h3v1h-3z"/><path d="m41 114h3v1h-3z"/><path d="m46 126h-12v-11h12zm-11-1h10v-8h-10z"/><path d="m39 118-1 2h1v4h2v-6z"/><circle cx="53.5" cy="124.5" r="1.5"/><circle cx="59.5" cy="124.5" r="1.5"/><path d="m50 115h-1v1h1c.553 0 1 .447 1 1h1c0-1.104-.896-2-2-2z"/><path d="m61 123h-9l-1-6v-1h11v1zm-9-6 1 5h7l1-5z"/><path d="m75.586 113.586h2.828v2.828h-2.828z" transform="matrix(.7071 -.7071 .7071 .7071 -58.7645 88.1299)"/><path d="m68 126-3 1 1-3 8-8 2 2z"/><path d="m87 120v-4h2v5l-4 1.5-.5-1.5z"/><path d="m81 120c0-3.866 3.134-7 7-7s7 3.134 7 7-3.134 7-7 7-7-3.134-7-7zm7 5c2.762 0 5-2.238 5-5s-2.238-5-5-5-5 2.238-5 5 2.238 5 5 5z"/><path d="m110 125-1 1h-11v-12h12zm-9-4v4h1v-2h2v2h3v-4zm7-6h-8v5h8z"/><path d="m101 116h6v1h-6z"/><path d="m101 118h6v1h-6z"/><path d="m125 126h-10v-12h10zm-1-11h-8v3h8zm-7 5h-1v1h1zm0 2h-1v1h1zm0 2h-1v1h1zm2-4h-1v1h1zm0 2h-1v1h1zm0 2h-1v1h1zm2-4h-1v1h1zm0 2h-1v1h1zm0 2h-1v1h1zm3-4h-2v1h2zm0 2h-2v1h2zm0 2h-2v1h2z"/><path d="m128 118c0-3.313 2.686-6 6-6 3.312 0 6 2.687 6 6s-2.688 6-6 6c-3.314 0-6-2.687-6-6zm6 4c2.209 0 4-1.791 4-4s-1.791-4-4-4-4 1.791-4 4 1.791 4 4 4z"/><path d="m137 122 1-1 3 2 3 3s0 1-.5 1.5-1.5.5-1.5.5l-3-3z"/><path d="m131 117h6v2h-6z"/><path d="m133 115h2v6h-2z"/><path d="m144 118c0-3.313 2.686-6 6-6 3.312 0 6 2.687 6 6s-2.688 6-6 6c-3.314 0-6-2.687-6-6zm6 4c2.209 0 4-1.791 4-4s-1.791-4-4-4-4 1.791-4 4 1.791 4 4 4z"/><path d="m153 122 1-1 3 2 3 3s0 1-.5 1.5-1.5.5-1.5.5l-3-3z"/><path d="m147 117h6v2h-6z"/><path d="m160 118c0-3.313 2.686-6 6-6 3.312 0 6 2.687 6 6s-2.688 6-6 6c-3.314 0-6-2.687-6-6zm6 4c2.209 0 4-1.791 4-4s-1.791-4-4-4-4 1.791-4 4 1.791 4 4 4z"/><path d="m169 122 1-1 3 2 3 3s0 1-.5 1.5-1.5.5-1.5.5l-3-3z"/><path d="m188.5 118c-1.381 0-2.5-1.119-2.5-2.5 0-1.155.787-2.117 1.852-2.404-.274-.06-.559-.096-.852-.096-2.209 0-4 1.791-4 4s1.791 4 4 4 4-1.791 4-4c0-.293-.036-.577-.096-.852-.287 1.065-1.249 1.852-2.404 1.852z"/><path d="m186.414 120.414-6 6c-.78.781-2.048.781-2.828 0-.781-.781-.781-2.048-.001-2.828l6.001-6zm-7.414 5.586c.553 0 1-.447 1-1s-.447-1-1-1-1 .447-1 1 .447 1 1 1z"/><path d="m206.5 119c.115.707.113 1.313 0 2-.721-.202-1.581.165-1.875.875-.293.709-.027 1.509.625 1.875-.405.565-.918 1.083-1.5 1.5-.366-.653-1.166-.919-1.875-.625-.711.294-1.078 1.153-.875 1.875-.707.116-1.312.112-2 0 .203-.722-.165-1.581-.875-1.875-.709-.294-1.508-.028-1.875.625-.564-.405-1.082-.918-1.5-1.5.654-.366.918-1.166.625-1.875-.295-.71-1.152-1.078-1.875-.875-.115-.706-.113-1.313 0-2 .721.203 1.581-.166 1.875-.875s.028-1.508-.625-1.875c.405-.565.918-1.083 1.5-1.5.365.653 1.166.919 1.875.625.711-.294 1.078-1.063.875-1.785.707-.116 1.312-.111 2 .001-.203.722.166 1.491.875 1.784.71.293 1.508.028 1.875-.625.564.405 1.082.919 1.5 1.5-.654.366-.919 1.166-.625 1.875.294.71 1.152 1.078 1.875.875zm-6.5 4c1.656 0 3-1.344 3-3 0-1.657-1.344-3-3-3s-3 1.343-3 3c0 1.656 1.344 3 3 3z"/><path d="m218.5 114c2.5-.5 4.979 2.174 3.5 5.5-2 4.5-6 6.5-6 6.5s-4-2-6-6.5c-1.479-3.326 1-6 3.5-5.5 2.021.404 2.5 2 2.5 2s.479-1.596 2.5-2z"/><path d="m232 113 1.5 5h5.5l-4.5 3 2 5.5-4.5-3.77-4.5 3.77 2-5.5-4.5-3h5.5z"/><path d="m247 112h2v5h-2z"/><path d="m247 123h2v5h-2z"/><path d="m240 119h5v2h-5z"/><path d="m251 119h5v2h-5z"/><path d="m241 120c0-3.865 3.134-7 7-7s7 3.135 7 7c0 3.867-3.134 7-7 7s-7-3.133-7-7zm7 5c2.762 0 5-2.238 5-5 0-2.761-2.238-5-5-5s-5 2.239-5 5c0 2.762 2.238 5 5 5z"/><path d="m1 136c0-3.866 3.134-7 7-7s7 3.134 7 7-3.134 7-7 7-7-3.134-7-7zm7 5c2.762 0 5-2.238 5-5s-2.238-5-5-5-5 2.238-5 5 2.238 5 5 5z"/><path d="m1.99 134.939h12.021v2.121h-12.021z" transform="matrix(.7071 -.7071 .7071 .7071 -93.8234 45.4903)"/><path d="m17 136c0-3.866 3.134-7 7-7s7 3.134 7 7-3.134 7-7 7-7-3.134-7-7zm12-1h-4v-4h-2v4h-4v2h4v4h2v-4h4z"/><path d="m34 134h12v4h-12z"/><path d="m38 130h4v12h-4z"/><path d="m49 136c0-3.866 3.134-7 7-7s7 3.134 7 7-3.134 7-7 7-7-3.134-7-7zm12-1h-10v2h10z"/><path d="m66 134h12v4h-12z"/><path d="m81 136c0-3.866 3.134-7 7-7s7 3.134 7 7-3.134 7-7 7-7-3.134-7-7zm11.5-3-1.5-1.5-3 3-3-3-1.5 1.5 3 3-3 3 1.5 1.5 3-3 3 3 1.5-1.5-3-3z"/><path d="m110 132-2-2-4 4-4-4-2 2 4 4-4 4 2 2 4-4 4 4 2-2-4-4z"/><path d="m119 135h8v2h-8z"/><path d="m124 137h2v2h-2z"/><path d="m120 136c0 2.209-1.567 4-3.5 4s-3.5-1.791-3.5-4 1.567-4 3.5-4 3.5 1.791 3.5 4zm-3.5 2.5c1.104 0 2-1.119 2-2.5s-.896-2.5-2-2.5-2 1.119-2 2.5.896 2.5 2 2.5z"/><path d="m138 143h-4v-6h4zm-1-4h-2v1h2zm0 2h-2v1h2z"/><path d="m141 133c0 2.762-2.238 5-5 5s-5-2.238-5-5 2.238-5 5-5 5 2.238 5 5zm-5 3.5c1.933 0 3.5-1.567 3.5-3.5s-1.567-3.5-3.5-3.5-3.5 1.567-3.5 3.5 1.567 3.5 3.5 3.5z"/><path d="m136 144-1-1h2z"/><path d="m149 138.5c0 1.381-.343 2.5-2 2.5s-3-1.119-3-2.5 1.343-2.5 3-2.5c-1.657 0-3-1.119-3-2.5s1.343-2.5 3-2.5 2 1.119 2 2.5v1.25c1 0 4-2.5 7-2.5s4 1.25 4 1.25-3 0-5 1.25c-1.789 1.118-3 1.25-3 1.25s1.211.132 3 1.25c2 1.25 5 1.25 5 1.25s-1 1.25-4 1.25-6-2.5-7-2.5zm-2-3.75c1.104 0 1-.559 1-1.25s.104-1.25-1-1.25c-1.105 0-2 .559-2 1.25s.895 1.25 2 1.25zm0 5c1.104 0 1-.559 1-1.25s.104-1.25-1-1.25c-1.105 0-2 .559-2 1.25s.895 1.25 2 1.25z"/><path d="m173 131v12h-10v-12h2l1-2h4l1 2zm-3 11c2 0 2-1 2-1v-8h-8v8s0 1 2 1zm-1-12h-2v1h2z"/><path d="m165 135h6v1h-6z"/><path d="m165 137h6v1h-6z"/><path d="m165 139h6v1h-6z"/><path d="m184 139v2h7v-10h-7v2h-1v-3h9v12h-9v-3z"/><path d="m182 131v-1h-6v12h6v-1h-5v-10z"/><path d="m189 136-3-3v2h-6v2h6v2z"/><path d="m201 140v-.399c-.456.249-.961.399-1.5.399-1.934 0-3.5-1.791-3.5-4s1.566-4 3.5-4c.539 0 1.044.15 1.5.399v-.348-.051h2v7h2.177c.516-.884.823-1.902.823-3 0-3.314-2.687-6-6-6-3.314 0-6 2.686-6 6s2.686 6 6 6c1.094 0 2.117-.298 3-.81v1.127c-.91.433-1.925.683-3 .683-3.866 0-7-3.134-7-7s3.134-7 7-7 7 3.134 7 7c0 1.488-.468 2.865-1.26 4zm0-5.723c-.295-.172-.634-.277-1-.277-1.105 0-2 .895-2 2s.895 2 2 2c.366 0 .705-.105 1-.277z"/><path d="m208 142v-12h16v12zm15-11h-14v10h14z"/><path d="m210 140 3-3 1 1 4-4 4 4v2z"/><circle cx="212" cy="134" r="2"/><path d="m237 142h-10v-13h10zm-8-12h-1v1h1zm0 2h-1v1h1zm0 2h-1v1h1zm0 2h-1v1h1zm0 2h-1v1h1zm0 2h-1v1h1zm7 0h-1v1h1zm0-2h-1v1h1zm0-2h-1v1h1zm0-2h-1v1h1zm0-2h-1v1h1zm0-2h-1v1h1zm-2 0h-4v5h4zm0 6h-4v5h4z"/><path d="m244 130h7c2 0 2 3 1 6-.24.72-.479 1.438-.677 2.116.393.27.677 1.007.677 1.884 0 .842-.261 1.56-.629 1.855l-.371.145h-7c-2 0-1-3 0-6 .269-.805.461-1.606.566-2.354-.161.223-.355.354-.566.354-.553 0-1-.895-1-2 0-.857.271-1.584.65-1.867zm6 11s0-2 1-5c1.304-3.911 0-5 0-5h-6s1.304 1.089 0 5c-1 3-1 5-1 5z"/><path d="m0 159 8-14 8 14zm9-10h-2v6h2zm0 7h-2v2h2z"/><path d="m23 150h2v7h-2z"/><path d="m23 147h2v2h-2z"/><path d="m24 145c-3.866 0-7 3.134-7 7s3.134 7 7 7 7-3.134 7-7-3.134-7-7-7zm0 13c-3.314 0-6-2.686-6-6s2.686-6 6-6 6 2.686 6 6-2.686 6-6 6z"/><path d="m32 152c0-1 3-6 8-6s8 5 8 6-3 6-8 6-8-5-8-6zm8 4c2.209 0 4-1.791 4-4s-1.791-4-4-4-4 1.791-4 4 1.791 4 4 4z"/><circle cx="40" cy="152" r="2"/><path d="m55 155h2v2h-2z"/><path d="m59 150c0-1.657-1.343-3-3-3s-3 1.343-3 3h2c0-.553.447-1 1-1s1 .447 1 1-.447 1-1 1-1 .447-1 1v2h2v-1.184c1.163-.413 2-1.511 2-2.816z"/><path d="m56 145c-3.866 0-7 3.134-7 7s3.134 7 7 7 7-3.134 7-7-3.134-7-7-7zm0 13c-3.314 0-6-2.686-6-6s2.686-6 6-6 6 2.686 6 6-2.686 6-6 6z"/><path d="m77 147-7 7-2-2-2 2 4 4 9-9z"/><circle cx="88" cy="152" r="5"/><path d="m109 152c0 2.762-2.238 5-5 5s-5-2.238-5-5 2.238-5 5-5 5 2.238 5 5zm-5 2c1.104 0 2-.895 2-2s-.896-2-2-2-2 .895-2 2 .896 2 2 2z"/><path d="m125 152c0 2.762-2.238 5-5 5s-5-2.238-5-5 2.238-5 5-5 5 2.238 5 5zm-5 3.5c1.933 0 3.5-1.567 3.5-3.5s-1.567-3.5-3.5-3.5-3.5 1.567-3.5 3.5 1.567 3.5 3.5 3.5z"/><path d="m129 152 4-1v2z"/><path d="m133 156v-8h1l4 1 2-1h1v8h-1l-2-1-4 1zm2-1 2-1v-4l-2-1z"/><path d="m152 159-1-4h2z"/><path d="m156 155h-8v-1l1-4-1-2v-1h8v1l-1 2 1 4zm-1-2-1-2h-4l-1 2z"/><path d="m4 173v-10l9 5z"/><path d="m20 164h3v8h-3z"/><path d="m25 164h3v8h-3z"/><path d="m34 171v-6l6 3z"/><path d="m41 171v-6l6 3z"/><path d="m62 171v-6l-6 3z"/><path d="m55 171v-6l-6 3z"/><path d="m67 171v-6l6 3z"/><path d="m75 165h2v6h-2z"/><path d="m93 171v-6l-6 3z"/><path d="m83 165h2v6h-2z"/><path d="m100 164h8v8h-8z"/><path d="m116 170h8v2h-8z"/><path d="m124 169h-8l4-5z"/><path d="m135 166h-3v4h3l3 3v-10z"/><path d="m151 166h-3v4h3l3 3v-10z"/><path d="m155 169c.553 0 1-.447 1-1s-.447-1-1-1z"/><path d="m156.555 165.445-.734.734c.694.313 1.18 1.009 1.18 1.82s-.485 1.507-1.18 1.82l.734.734c.863-.527 1.445-1.47 1.445-2.555s-.582-2.025-1.445-2.553z"/><path d="m157.987 164.013-.707.707c1.038.723 1.72 1.92 1.72 3.28s-.682 2.558-1.72 3.28l.707.707c1.216-.912 2.013-2.351 2.013-3.987s-.797-3.075-2.013-3.987z"/><path d="m7 177h2v5h-2z"/><path d="m10 179.25v2.25c1.19.693 2 2.023 2 3.5 0 2.209-1.791 4-4 4s-4-1.791-4-4c0-1.477.81-2.807 2-3.5v-2.25c-2.328.824-4 3.139-4 5.75 0 3.314 2.687 6 6 6 3.314 0 6-2.686 6-6 0-2.611-1.672-4.926-4-5.75z"/><path d="m27 189c0-4.418-3.582-8-8-8v-2c5.522 0 10 4.477 10 10z"/><path d="m19 185c2.209 0 4 1.791 4 4h2c0-3.314-2.687-6-6-6z"/><path d="m21 189c0-1.105-.896-2-2-2v2z"/><path d="m45 179h2v10h-2z"/><path d="m41 182h2v7h-2z"/><path d="m37 185h2v4h-2z"/><path d="m33 188h2v1h-2z"/><path d="m61 182h2v4h-2z"/><path d="m50 180h12v8h-12zm1 7h10v-6h-10z"/><path d="m77 182h2v4h-2z"/><path d="m68 182h2v4h-2z"/><path d="m66 180h12v8h-12zm1 7h10v-6h-10z"/><path d="m93 182h2v4h-2z"/><path d="m87 182h2v4h-2z"/><path d="m84 182h2v4h-2z"/><path d="m82 180h12v8h-12zm1 7h10v-6h-10z"/><path d="m106 182h2v4h-2z"/><path d="m109 182h2v4h-2z"/><path d="m103 182h2v4h-2z"/><path d="m100 182h2v4h-2z"/><path d="m98 180h12v8h-12zm1 7h10v-6h-10z"/><path d="m2 200c0-3.314 2.687-6 6-6 3.314 0 6 2.686 6 6s-2.686 6-6 6c-3.313 0-6-2.686-6-6zm9-1h-2v-2h-2v2h-2v2h2v2h2v-2h2z"/><path d="m18 200c0-3.314 2.687-6 6-6s6 2.686 6 6-2.687 6-6 6-6-2.686-6-6zm9-1h-6v2h6z"/><path d="m34 200c0-3.314 2.687-6 6-6s6 2.686 6 6-2.687 6-6 6-6-2.686-6-6zm9-1.5-1.5-1.5-1.5 1.5-1.5-1.5-1.5 1.5 1.5 1.5-1.5 1.5 1.5 1.5 1.5-1.5 1.5 1.5 1.5-1.5-1.5-1.5z"/><path d="m50 200c0-3.314 2.687-6 6-6s6 2.686 6 6-2.687 6-6 6-6-2.686-6-6zm4 3 5-3-5-3z"/><path d="m72 194c3.313 0 6 2.686 6 6s-2.687 6-6 6-6-2.686-6-6 2.687-6 6-6zm-3 4 3 5 3-5z"/><path d="m94 200c0 3.314-2.687 6-6 6s-6-2.686-6-6 2.687-6 6-6 6 2.686 6 6zm-4-3-5 3 5 3z"/><path d="m104 206c-3.313 0-6-2.686-6-6s2.687-6 6-6 6 2.686 6 6-2.687 6-6 6zm3-4-3-5-3 5z"/><path d="m126 200c0 3.314-2.687 6-6 6s-6-2.686-6-6 2.687-6 6-6 6 2.686 6 6zm-2 0-3-3v2h-5v2h5v2z"/><path d="m136 206c-3.314 0-6-2.686-6-6s2.686-6 6-6c3.313 0 6 2.686 6 6s-2.687 6-6 6zm0-2 3-3h-2v-5h-2v5h-2z"/><path d="m146 200c0-3.314 2.686-6 6-6 3.313 0 6 2.686 6 6s-2.687 6-6 6c-3.314 0-6-2.686-6-6zm2 0 3 3v-2h5v-2h-5v-2z"/><path d="m168 194c3.313 0 6 2.686 6 6s-2.687 6-6 6c-3.314 0-6-2.686-6-6s2.686-6 6-6zm0 2-3 3h2v5h2v-5h2z"/><path d="m178 200c0-3.314 2.686-6 6-6 3.313 0 6 2.686 6 6s-2.687 6-6 6c-3.314 0-6-2.686-6-6zm6.5-3c-1.381 0-2.5 1.119-2.5 2.5 0 .433.119.833.312 1.188l-2.312 2.312 1 1 2.312-2.312c.355.193.755.312 1.188.312 1.381 0 2.5-1.119 2.5-2.5s-1.119-2.5-2.5-2.5z"/><path d="m183 199h3v1h-3z"/><path d="m184 198h1v3h-1z"/><path d="m194 200c0-3.314 2.686-6 6-6 3.313 0 6 2.686 6 6s-2.687 6-6 6c-3.314 0-6-2.686-6-6zm6.5-3c-1.381 0-2.5 1.119-2.5 2.5 0 .433.119.833.312 1.188l-2.312 2.312 1 1 2.312-2.312c.355.193.755.312 1.188.312 1.381 0 2.5-1.119 2.5-2.5s-1.119-2.5-2.5-2.5z"/><path d="m199 199h3v1h-3z"/><path d="m210 200c0-3.314 2.686-6 6-6 3.313 0 6 2.686 6 6s-2.687 6-6 6c-3.314 0-6-2.686-6-6zm9-3.5-5 5-1-1-1 1 2 2 6-6z"/><path d="m2 216c0-3.314 2.687-6 6-6 3.314 0 6 2.686 6 6s-2.686 6-6 6c-3.313 0-6-2.686-6-6zm6 5c2.761 0 5-2.238 5-5s-2.239-5-5-5-5 2.238-5 5 2.239 5 5 5z"/><path d="m5 215h6v2h-6z"/><path d="m7 213h2v6h-2z"/><path d="m21 215h6v2h-6z"/><path d="m18 216c0-3.314 2.687-6 6-6s6 2.686 6 6-2.687 6-6 6-6-2.686-6-6zm6 5c2.762 0 5-2.238 5-5s-2.238-5-5-5c-2.761 0-5 2.238-5 5s2.239 5 5 5z"/><path d="m36.818 214.939h6.364v2.121h-6.364z" transform="matrix(.7071 -.7071 .7071 .7071 -141.0193 91.5492)"/><path d="m38.939 212.818h2.121v6.364h-2.121z" transform="matrix(.7071 -.7071 .7071 .7071 -141.0193 91.5492)"/><path d="m34 216c0-3.314 2.687-6 6-6s6 2.686 6 6-2.687 6-6 6-6-2.686-6-6zm6 5c2.762 0 5-2.238 5-5s-2.238-5-5-5-5 2.238-5 5 2.238 5 5 5z"/><path d="m61 221h-10v-10h10zm-1-9h-8v8h8z"/><path d="m53 215h6v2h-6z"/><path d="m55 213h2v6h-2z"/><path d="m77 221h-10v-10h10zm-1-9h-8v8h8z"/><path d="m69 215h6v2h-6z"/><path d="m93 221h-10v-10h10zm-1-9h-8v8h8z"/><path d="m84.818 214.939h6.364v2.121h-6.364z" transform="matrix(.7071 -.7071 .7071 .7071 -126.9605 125.4903)"/><path d="m86.939 212.818h2.121v6.364h-2.121z" transform="matrix(.7071 -.7071 .7071 .7071 -126.9605 125.4903)"/><path d="m9 237h1v1h-1z"/><path d="m6 237h1v1h-1z"/><path d="m9 235h1v1h-1z"/><path d="m6 235h1v1h-1z"/><path d="m9 233h1v1h-1z"/><path d="m6 233h1v1h-1z"/><path d="m9 231h1v1h-1z"/><path d="m6 231h1v1h-1z"/><path d="m9 229h1v1h-1z"/><path d="m6 229h1v1h-1z"/><path d="m9 227h1v1h-1z"/><path d="m6 227h1v1h-1z"/><path d="m19 233h1v1h-1z"/><path d="m19 230h1v1h-1z"/><path d="m21 233h1v1h-1z"/><path d="m21 230h1v1h-1z"/><path d="m23 233h1v1h-1z"/><path d="m23 230h1v1h-1z"/><path d="m25 233h1v1h-1z"/><path d="m25 230h1v1h-1z"/><path d="m27 233h1v1h-1z"/><path d="m27 230h1v1h-1z"/><path d="m29 233h1v1h-1z"/><path d="m29 230h1v1h-1z"/><path d="m38 226h1v12h-1z"/><path d="m41 226h1v12h-1z"/><path d="m50 233h12v1h-12z"/><path d="m50 230h12v1h-12z"/><path d="m77 234-3 3h-1l4-4z"/><path d="m77 231-6 6h-1l7-7z"/><path d="m77 228-9 9h-1l10-10z"/><path d="m94 235-3 3h-1v-1l3-3h1z"/><path d="m94 231-7 7h-1v-1l7-7h1z"/><path d="m94 227-11 11h-1v-1.124l10.875-10.876h1.125z"/><path d="m7 261-2-2-5 5 5 5 2-2-3-3z"/><path d="m9 267 2 2 5-5-5-5-2 2 3 3z"/><path d="m21 259h10v1h-10z"/><path d="m21 262h10v1h-10z"/><path d="m21 265h10v1h-10z"/><path d="m21 268h10v1h-10z"/><path d="m17 258h2v2h-2z"/><path d="m17 261h2v2h-2z"/><path d="m17 264h2v2h-2z"/><path d="m17 267h2v2h-2z"/><path d="m32 259h16v1h-16z"/><path d="m32 262h16v1h-16z"/><path d="m32 265h16v1h-16z"/><path d="m32 268h16v1h-16z"/><path d="m32 259h1v10h-1z"/><path d="m35 259h1v10h-1z"/><path d="m38 259h1v10h-1z"/><path d="m41 259h1v10h-1z"/><path d="m44 259h1v10h-1z"/><path d="m47 259h1v10h-1z"/><path d="m58 266h3v-8h-10v8h3v2h-5v-12h14v12h-5z"/><path d="m56 272 3-3h-2v-7h-2v7h-2z"/><path d="m74 266h3v-8h-10v8h3v2h-5v-12h14v12h-5z"/><path d="m72 262-3 3h2v7h2v-7h2z"/><path d="m81.5 262.5s6.25 6.25 7.5 7.5c1 1 3.03 1.529 4.5 0 1.482-1.544 1-3.5 0-4.5l-8-7.5c-1.031-1.072-2.5-1.5-3.5-.5s-.5 2.5.5 3.5l7.5 7.5c.5.5 1.5.5 2 0s.5-1.5 0-2l-7.5-7" fill="none" stroke="#000" stroke-miterlimit="10"/><path d="m107 268v2h-1v-3h3v1z"/><path d="m97 263h6v2h-6z"/><path d="m99 261h2v6h-2z"/><path d="m100 257v3h1v-2h8v10l-2 2h-6v-2h-1v3h7l3-3v-11z"/><path d="m118 259.5c0-1.474 1.02-2.5 3.25-2.5h1.75v2h-.734c-.804 0-1.266.514-1.266 1.12v1.88h2v2h-2v7h-3v-7h-2v-2h2z"/><path d="m143.5 264s0 2.441-.313 3.61c-.173.645-.681 1.154-1.326 1.326-1.17.313-5.86.313-5.86.313s-4.691 0-5.86-.313c-.645-.173-1.154-.681-1.326-1.326-.313-1.17-.313-3.61-.313-3.61s0-2.441.313-3.61c.173-.645.681-1.154 1.326-1.326 1.17-.313 5.86-.313 5.86-.313s4.691 0 5.86.313c.645.173 1.154.681 1.326 1.326.313 1.169.313 3.61.313 3.61zm-9.034 2.216 3.921-2.216-3.921-2.216z"/><g clip-rule="evenodd" fill-rule="evenodd"><path d="m149 270v-8h-3v8h2.5z"/><path d="m153 265.325c0-.223.014-.415.075-.575.166-.446.291-.875.925-.875.829 0 1 .621 1 1.625v4.5h3v-4.75c0-2.295-.991-3.4-2.5-3.4-1.237 0-2.198.74-2.5 1.25v-1.1h-3v8h3z"/><circle cx="147.5" cy="259.25" r="1.5"/></g><path d="m175 259.465c-.514.241-1.067.404-1.648.478.593-.375 1.047-.969 1.262-1.678-.555.346-1.168.6-1.822.693-.523-.59-1.27-.957-2.094-.957-1.585 0-2.869 1.357-2.869 3.031 0 .237 0 .469.074.693-2.385-.127-4.499-1.333-5.901-3.168-.247.448-.388.969-.388 1.524 0 1.052.506 1.98 1.276 2.524-.47 0-.912-.153-1.299-.379 0 1.468.983 2.694 2.302 2.973-.241.069-.494.105-.756.105-.185 0-.364 0-.539 0 .365 1.205 1.424 2.078 2.622 2.078-.982.814-2.219 1.299-3.564 1.299-.232 0-.46 0-.656-.043 1.27.86 2.778 1.362 4.398 1.362 5.279 0 8.165-4.62 8.165-8.626 0-.132 0-.262 0-.392.566-.375 1.053-.909 1.437-1.517z"/><path d="m184 258.261c1.869 0 2.09.007 2.829.041.682.031 1.053.145 1.3.241.327.127.56.279.805.524s.397.478.524.805c.096.247.21.617.241 1.3.034.738.041.96.041 2.829s-.007 2.091-.041 2.829c-.031.682-.145 1.053-.241 1.3-.127.327-.279.56-.524.805s-.478.397-.805.524c-.247.096-.617.21-1.3.241-.738.034-.959.041-2.829.041s-2.091-.007-2.829-.041c-.683-.031-1.053-.145-1.3-.241-.327-.127-.56-.279-.805-.524s-.397-.478-.524-.805c-.096-.247-.21-.617-.241-1.3-.034-.738-.041-.96-.041-2.829s.007-2.091.041-2.829c.031-.682.145-1.053.241-1.3.127-.327.279-.56.524-.805s.478-.397.805-.524c.247-.096.617-.21 1.3-.241.739-.034.96-.041 2.829-.041m0-1.261c-1.901 0-2.14.008-2.886.042-.745.034-1.254.152-1.699.325-.46.179-.851.418-1.24.807s-.628.78-.807 1.24c-.173.445-.291.954-.325 1.699-.035.748-.043.986-.043 2.887s.008 2.139.042 2.886c.034.745.152 1.254.325 1.699.179.46.418.851.807 1.24s.779.629 1.24.807c.445.173.954.291 1.699.325.747.035.986.043 2.887.043s2.139-.008 2.886-.042c.745-.034 1.254-.152 1.699-.325.46-.179.851-.418 1.24-.807s.629-.78.807-1.24c.173-.445.291-.954.325-1.699.034-.747.042-.985.042-2.886s-.008-2.139-.042-2.886c-.034-.745-.152-1.254-.325-1.699-.179-.46-.418-.851-.807-1.24s-.779-.629-1.24-.807c-.445-.173-.954-.291-1.699-.325-.747-.036-.985-.044-2.886-.044z"/><path d="m184 260.405c-1.985 0-3.595 1.609-3.595 3.595s1.609 3.595 3.595 3.595 3.595-1.609 3.595-3.595-1.61-3.595-3.595-3.595zm0 5.928c-1.289 0-2.333-1.045-2.333-2.333s1.045-2.333 2.333-2.333c1.289 0 2.333 1.045 2.333 2.333s-1.044 2.333-2.333 2.333z"/><circle cx="187.737" cy="260.263" r=".84"/><path clip-rule="evenodd" d="m199.999 257c-3.865 0-6.999 3.134-6.999 7 0 3.092 2.005 5.716 4.787 6.642.35.064.478-.152.478-.337 0-.166-.006-.606-.009-1.191-1.947.423-2.358-.938-2.358-.938-.318-.809-.777-1.024-.777-1.024-.636-.434.048-.426.048-.426.702.049 1.072.721 1.072.721.624 1.07 1.638.761 2.037.582.064-.452.245-.761.445-.936-1.554-.177-3.189-.777-3.189-3.46 0-.764.273-1.389.721-1.878-.072-.177-.312-.889.069-1.853 0 0 .588-.188 1.925.718.558-.155 1.157-.233 1.752-.236.594.003 1.193.08 1.753.236 1.336-.906 1.923-.718 1.923-.718.382.964.142 1.675.07 1.853.449.489.719 1.114.719 1.878 0 2.689-1.637 3.281-3.196 3.454.251.216.475.643.475 1.296 0 .936-.009 1.691-.009 1.92 0 .187.126.405.481.337 2.779-.927 4.783-3.549 4.783-6.641 0-3.865-3.134-6.999-7.001-6.999z" fill-rule="evenodd"/><path d="m222.974 264.933-.783-2.431-1.554-4.815c-.079-.249-.426-.249-.506 0l-1.554 4.814h-5.154l-1.553-4.814c-.079-.249-.428-.249-.507-.002l-1.554 4.815-.783 2.433c-.071.221.008.464.193.602l6.781 4.965 6.781-4.965c.186-.138.265-.38.193-.602"/><path d="m225.454 258c-.247-.003-.45.186-.454.422 0 .025.001.05.006.075l1.903 11.019c.049.277.301.482.596.485h9.132c.223.002.413-.151.449-.359l1.908-11.141c.04-.232-.126-.462-.37-.5-.026-.004-.052.004-.078.004zm8.016 8h-2.916l-.789-4h4.411z"/><path d="m254.223 265.393c-.191.988-1.712 2.068-3.458 2.278-.911.109-1.807.209-2.763.165-1.563-.072-2.797-.375-2.797-.375 0 .153.009.298.028.435.203 1.55 1.53 1.643 2.787 1.686 1.268.044 2.398-.314 2.398-.314l.052 1.152s-.887.479-2.468.567c-.872.048-1.954-.022-3.214-.357-2.734-.727-3.204-3.654-3.276-6.624-.022-.882-.008-1.713-.008-2.409 0-3.037 1.981-3.927 1.981-3.927.999-.461 2.713-.655 4.494-.669h.044c1.782.015 3.497.208 4.495.669 0 0 1.981.89 1.981 3.927 0-.001.025 2.24-.276 3.796zm-2.633-5.352c-.395-.442-.911-.668-1.553-.668-.742 0-1.304.287-1.676.86l-.361.608-.361-.608c-.372-.573-.934-.86-1.676-.86-.641 0-1.158.227-1.553.668-.383.442-.573 1.039-.573 1.791v3.677h1.45v-3.569c0-.752.315-1.134.945-1.134.697 0 1.046.453 1.046 1.349v1.954h1.442v-1.954c0-.896.349-1.349 1.046-1.349.63 0 .945.382.945 1.134v3.569h1.45v-3.677c.002-.752-.189-1.349-.571-1.791z"/><path d="m13 244 2-2-1-1-2 2h-7v-2h-2v2h-2v2h2v8h8v2h2v-2h2v-2h-2zm-8 1h5l-5 5zm1 6 5-5v5z"/><path d="m20 246c2.209 0 4 2 4 4h-2l3 3 3-3h-2c0-3-2.686-6-6-6z"/><path d="m32 242v12h16v-12zm15 11h-6v-2h-2v2h-6v-10h6v2h2v-2h6z"/><path d="m38 249v2l-3-3 3-3v2h4v-2l3 3-3 3v-2z"/><path d="m50 256h12v-16h-12zm11-15v6h-2v2h2v6h-10v-6h2v-2h-2v-6z"/><path d="m57 250h2l-3 3-3-3h2v-4h-2l3-3 3 3h-2z"/></svg>